<svg width="48" height="48" viewBox="0 0 48 48" fill="none" xmlns="http://www.w3.org/2000/svg">
<path d="M34 36H36M24 36H26M14 36H16M4 40C4 41.0609 4.42143 42.0783 5.17157 42.8284C5.92172 43.5786 6.93913 44 8 44H40C41.0609 44 42.0783 43.5786 42.8284 42.8284C43.5786 42.0783 44 41.0609 44 40V16L30 26V16L16 26V8C16 6.93913 15.5786 5.92172 14.8284 5.17157C14.0783 4.42143 13.0609 4 12 4H8C6.93913 4 5.92172 4.42143 5.17157 5.17157C4.42143 5.92172 4 6.93913 4 8V40Z" stroke="#0068AB" stroke-width="2" stroke-linecap="round" stroke-linejoin="round"/>
</svg>
