<svg width="48" height="48" viewBox="0 0 48 48" fill="none" xmlns="http://www.w3.org/2000/svg">
<path d="M20 16H12L10 14L8 16H4C4 10.48 8.92 6 15 6C21.08 6 26 10.48 26 16C27 20 32 33 28 44H20C21.66 40 23 36 22 31M26 14.2798C28.0252 12.7825 30.4814 11.9825 33 11.9998C39.08 11.9998 44 16.4798 44 21.9998H38L36 19.9998L34 21.9998H28M11.7802 19.4199C7.48018 23.7199 7.18018 30.3599 11.0802 34.2799L19.5602 25.7799L26.6202 18.7199C22.7202 14.7999 16.0802 15.1199 11.7802 19.4199Z" stroke="#0068AB" stroke-width="2" stroke-linecap="round" stroke-linejoin="round"/>
</svg>
